<svg width="471" height="560" viewBox="0 0 471 560" fill="none" xmlns="http://www.w3.org/2000/svg">
<path opacity="0.5" d="M263.442 487.275C295.227 505.626 324.275 508.515 324.275 508.515C324.275 508.515 307.249 484.803 275.464 466.451C256.813 455.683 239.001 451.612 235.679 457.364C232.358 463.115 244.791 476.506 263.442 487.275Z" fill="url(#paint0_linear_1304_101)"/>
<path d="M253.219 476.26C273.298 487.852 291.648 489.677 291.648 489.677C291.648 489.677 280.893 474.703 260.814 463.105C249.03 456.302 237.779 453.73 235.68 457.364C233.581 460.998 241.432 469.458 253.219 476.26Z" fill="url(#paint1_linear_1304_101)"/>
<path opacity="0.5" d="M402.43 447.282C437.882 456.782 466.688 452.054 466.688 452.054C466.688 452.054 444.105 433.556 408.654 424.057C387.851 418.483 369.592 419.161 367.872 425.576C366.152 431.992 381.627 441.708 402.43 447.282Z" fill="url(#paint2_linear_1304_101)"/>
<path d="M389.704 439.288C412.1 445.288 430.297 442.302 430.297 442.302C430.297 442.302 416.033 430.621 393.636 424.616C380.493 421.094 368.959 421.522 367.873 425.576C366.786 429.629 376.559 435.768 389.704 439.288Z" fill="url(#paint3_linear_1304_101)"/>
<path d="M177.416 266.965C177.416 266.965 129.384 271.531 104.925 254.597C96.6276 262.071 91.889 280.886 91.889 280.886C91.889 280.886 137.453 313.574 198.267 305.188C206.393 289.87 177.416 266.965 177.416 266.965Z" fill="white"/>
<path d="M98.1323 238.306C95.1283 235.52 91.3641 236.55 90.3131 238.984C88.7263 242.66 92.5854 246.052 92.4178 248.35C88.2512 245.87 82.6486 241.443 78.662 239.712C72.0089 236.824 69.1897 238.059 68.1157 240.107C66.6879 242.829 69.2521 245.293 80.786 251.83C79.7721 251.383 69.9828 246.959 69.1253 246.595C64.3049 244.564 61.3471 245.932 60.6164 248.654C59.1157 254.243 76.1082 259.92 76.4477 260.135C73.5424 260.178 61.5037 253.216 58.5933 258.159C57.3266 260.311 58.7158 263.818 63.4238 265.364C67.3831 266.664 73.5312 269.171 74.3365 269.435C73.2689 270.248 66.043 265.705 63.446 268.556C62.5269 269.565 62.6983 271.281 63.6626 272.301C70.3212 279.35 88.7172 282.009 91.8892 280.887C95.4563 279.625 104.352 269.94 106.085 256.22C106.169 257.382 107.81 247.282 98.1323 238.306Z" fill="white"/>
<path d="M105.976 254.999C106.147 252.941 116.805 256.283 117.917 260.809C119.335 266.586 108.457 287.181 102.172 287.833C98.3829 288.226 91.6188 283.388 91.889 280.887C97.7816 274.511 105.612 259.392 105.976 254.999Z" fill="url(#paint4_linear_1304_101)"/>
<path d="M287.956 265.692C287.956 265.692 336.173 267.428 358.215 287.408C367.416 281.078 374.568 263.042 374.568 263.042C374.568 263.042 333.657 224.692 272.268 225.075C262.213 239.204 287.956 265.692 287.956 265.692Z" fill="white"/>
<path d="M362.825 304.444C365.44 307.598 369.306 307.068 370.665 304.791C372.718 301.354 369.334 297.488 369.8 295.231C373.608 298.233 378.585 303.353 382.312 305.589C388.532 309.32 391.488 308.464 392.82 306.574C394.59 304.061 392.369 301.284 381.787 293.298C382.734 293.874 391.862 299.537 392.665 300.009C397.179 302.652 400.29 301.681 401.37 299.077C403.586 293.732 387.479 285.887 387.171 285.629C390.057 285.966 401.085 294.438 404.615 289.917C406.152 287.949 405.232 284.291 400.766 282.144C397.01 280.339 391.241 277.052 390.478 276.684C391.642 276.018 398.214 281.465 401.16 278.977C402.204 278.096 402.257 276.373 401.434 275.235C395.752 267.378 377.86 262.342 374.569 263.041C370.868 263.827 360.785 272.27 357.277 285.647C357.344 284.483 354.4 294.283 362.825 304.444Z" fill="white"/>
<path d="M357.225 286.87C356.787 288.889 346.656 284.185 346.144 279.553C345.491 273.641 358.962 254.64 365.279 254.813C369.087 254.918 375.162 260.596 374.568 263.041C367.894 268.594 358.159 282.562 357.225 286.87Z" fill="url(#paint5_linear_1304_101)"/>
<path d="M206.046 324.005C194.498 332.223 159.332 362.452 156.203 389.155C154.464 403.993 193.693 455.061 193.693 455.061L228.315 424.928L213.499 401.324C213.499 401.324 234.203 381.249 246.519 374.227C258.836 367.206 229.463 307.34 206.046 324.005Z" fill="white"/>
<path d="M185.788 328.178C185.788 328.178 196.168 353.826 245.102 347.334C250 350.795 251.406 355.447 251.406 355.447C251.406 355.447 214.593 365.485 192.004 344.177C186.047 338.777 185.788 328.178 185.788 328.178Z" fill="url(#paint6_linear_1304_101)"/>
<path d="M253.024 457.01C252.448 453.221 249.136 450.172 247.645 447.525C245.387 456.332 232.723 469.403 210.629 484.274C197.884 492.851 189.546 493.856 185.923 489.384C185.051 500.222 193.753 508.284 213.373 496.021C238.558 480.281 253.93 462.977 253.024 457.01Z" fill="white"/>
<path d="M223.558 412.573C223.558 412.573 204.986 440.439 183.19 445.734L195.848 462.914C175.992 475.409 177.505 508.485 209.27 487.106C233.941 470.501 248.907 453.538 248.576 449.737C247.927 442.291 223.558 412.573 223.558 412.573Z" fill="url(#paint7_linear_1304_101)"/>
<path d="M221.908 442.753C219.165 438.453 219.753 433.174 223.22 430.962C226.687 428.75 231.722 430.443 234.465 434.742C237.208 439.042 236.62 444.321 233.153 446.533C229.686 448.745 224.651 447.052 221.908 442.753Z" fill="white"/>
<path d="M208.931 463.022C208.475 463.337 207.887 463.49 207.303 463.37C200.965 462.114 196.299 463.159 192.944 464.95C190.675 465.398 189.973 462.195 191.809 460.925C195.798 458.975 201.135 457.927 208.117 459.299C209.228 459.547 209.958 460.601 209.73 461.727C209.65 462.255 209.335 462.709 208.931 463.022Z" fill="white"/>
<path d="M202.577 470.535C202.122 470.85 201.534 471.004 200.95 470.883C194.612 469.628 189.945 470.673 186.591 472.463C184.322 472.912 183.619 469.709 185.456 468.439C189.445 466.489 194.782 465.44 201.763 466.813C202.874 467.06 203.604 468.115 203.377 469.241C203.296 469.768 202.981 470.223 202.577 470.535Z" fill="white"/>
<path d="M180.009 437.872C177.048 439.174 183.364 450.798 187.637 450.02C190.133 449.565 216.261 438.406 226.685 417.459C229.111 412.862 219.139 404.588 217.757 407.239C212.768 416.814 200.104 429.034 180.009 437.872Z" fill="url(#paint8_linear_1304_101)"/>
<path opacity="0.1" d="M183.867 386.647C177.223 402.169 171.562 402.325 165.731 399.829C159.9 397.332 155.973 391.485 162.044 377.305C168.271 362.759 175.054 361.929 180.886 364.426C186.718 366.922 189.998 372.324 183.867 386.647Z" fill="#222222"/>
<path d="M268.479 218.622C268.479 218.622 288.801 245.966 309.558 283.016C311.137 303.377 281.779 335.189 273.053 339.45C269.164 341.092 262.299 345.191 258.092 345.452C255.812 351.731 206.266 353.996 186.584 331.051C180.515 309.607 176.304 286.943 175.809 264.546C200.315 250.057 268.479 218.622 268.479 218.622Z" fill="white"/>
<path d="M185.89 319.632C192.71 338.431 220.258 345.656 247.423 335.807C274.592 325.94 291.08 302.727 284.307 283.941C277.487 265.156 249.93 257.927 222.762 267.794C195.581 277.653 179.076 300.858 185.89 319.632Z" fill="white"/>
<path d="M249.621 287.412C251.187 291.707 256.111 293.866 260.634 292.22C265.168 290.579 267.577 285.755 266.012 281.449C264.453 277.141 259.52 274.984 254.996 276.637C250.465 278.28 248.062 283.087 249.621 287.412Z" fill="white"/>
<path d="M198.503 305.954C200.048 310.255 204.805 312.485 209.09 310.925C213.365 309.376 215.561 304.623 214.014 300.31C212.444 296.014 207.716 293.782 203.426 295.327C199.136 296.898 196.94 301.646 198.503 305.954Z" fill="white"/>
<path d="M231.878 284.485C233.277 288.385 237.584 290.409 241.46 288.996C245.338 287.587 247.331 283.292 245.912 279.403C244.499 275.489 240.211 273.469 236.338 274.885C232.465 276.283 230.453 280.585 231.878 284.485Z" fill="white"/>
<path d="M212.887 291.384C214.306 295.263 218.598 297.286 222.475 295.879C226.357 294.481 228.352 290.175 226.938 286.28C225.525 282.375 221.226 280.368 217.358 281.774C213.461 283.176 211.46 287.479 212.887 291.384Z" fill="white"/>
<path d="M223.275 312.116C223.995 314.112 226.192 315.135 228.198 314.423L249.212 306.797C251.205 306.077 252.218 303.871 251.508 301.887L251.099 300.843C250.374 298.872 248.177 297.828 246.191 298.538L225.162 306.167C223.177 306.888 222.136 309.088 222.859 311.076L223.275 312.116Z" fill="white"/>
<path d="M228.218 325.795C228.937 327.791 231.135 328.814 233.14 328.103L254.154 320.476C256.147 319.757 257.161 317.551 256.45 315.566L256.042 314.522C255.317 312.552 253.119 311.508 251.134 312.218L230.104 319.847C228.12 320.567 227.078 322.767 227.802 324.756L228.218 325.795Z" fill="white"/>
<path d="M170.957 266.673C175.397 277.156 201.984 275.94 230.335 263.986C258.67 252.019 278.06 233.804 273.628 223.321C269.191 212.806 242.61 214.009 214.267 225.951C185.916 237.943 166.537 256.169 170.957 266.673Z" fill="#A3A4A5"/>
<path d="M237.696 341.787C229.147 343.215 221.091 346.549 221.416 349.537C227.792 369.678 239.56 368.483 242.084 368.061C244.608 367.64 256.125 364.945 255.61 343.826C254.947 340.894 246.244 340.359 237.696 341.787Z" fill="url(#paint9_linear_1304_101)"/>
<path d="M250.246 338.342C243.993 357.196 236.421 387.106 241.1 402.245C245.511 416.519 302.045 447.355 302.045 447.355L324.178 402.245L299.641 394.251C299.641 394.251 332.273 354.394 329.513 328.281C327.193 306.325 316.951 290.269 307.713 286.635C302.301 319.22 260.817 338.566 250.246 338.342Z" fill="white"/>
<path d="M369.354 417.063C366.626 414.372 362.147 413.914 359.368 412.684C362.831 421.091 360.51 439.142 351.711 464.279C346.635 478.779 340.557 484.574 334.978 483.16C340.767 492.365 352.563 493.614 360.941 472.048C371.694 444.365 373.652 421.301 369.354 417.063Z" fill="url(#paint10_linear_1304_101)"/>
<path d="M319.152 399.102C319.152 399.102 320.954 432.541 306.662 449.829L327.085 456.016C318.658 477.91 339.668 503.501 352.318 467.361C362.143 439.292 363.979 416.746 361.438 413.899C356.461 408.323 319.152 399.102 319.152 399.102Z" fill="url(#paint11_linear_1304_101)"/>
<path d="M335.856 424.313C331.085 422.511 328.395 417.93 329.849 414.082C331.303 410.235 336.349 408.577 341.12 410.379C345.891 412.181 348.58 416.762 347.127 420.61C345.673 424.457 340.627 426.115 335.856 424.313Z" fill="white"/>
<path d="M337.631 448.275C337.455 448.8 337.076 449.276 336.536 449.529C330.707 452.316 327.594 455.947 325.979 459.389C324.429 461.107 321.95 458.961 322.66 456.845C324.689 452.895 328.336 448.861 334.751 445.781C335.789 445.315 337.005 445.722 337.497 446.76C337.748 447.231 337.768 447.783 337.631 448.275Z" fill="white"/>
<path d="M337.038 458.096C336.862 458.621 336.483 459.096 335.943 459.349C330.114 462.136 327.001 465.767 325.386 469.209C323.836 470.927 321.357 468.781 322.067 466.665C324.096 462.715 327.743 458.681 334.158 455.602C335.196 455.135 336.412 455.542 336.904 456.581C337.155 457.051 337.175 457.604 337.038 458.096Z" fill="white"/>
<path d="M299.408 445.437C297.815 448.252 309.832 453.784 312.79 450.603C314.518 448.745 328.769 424.167 324.582 401.147C323.773 396.012 310.832 395.352 311.312 398.303C313.047 408.96 310.216 426.329 299.408 445.437Z" fill="url(#paint12_linear_1304_101)"/>
<path opacity="0.1" d="M265.385 388.764C265.587 405.646 260.473 408.079 254.13 408.155C247.788 408.231 241.832 404.471 241.648 389.047C241.459 373.225 247.328 369.723 253.67 369.647C260.013 369.572 265.199 373.185 265.385 388.764Z" fill="#222222"/>
<path d="M306.304 277.279C306.304 277.279 301.205 315.181 247.825 343.862C245.172 348.059 245.753 353.291 245.753 353.291C245.753 353.291 304.044 329.4 312.808 289.778C313.06 281.736 306.304 277.279 306.304 277.279Z" fill="url(#paint13_linear_1304_101)"/>
<path d="M115.882 178.172C119.603 196.775 111.056 214.187 96.7763 217.041C82.5016 219.907 67.9165 207.107 64.2092 188.501C60.474 169.874 69.0279 152.46 83.3015 149.606C97.566 146.771 112.167 159.544 115.882 178.172Z" fill="white"/>
<path d="M123.548 177.344C128.003 199.572 121.16 219.707 108.305 222.279C95.4467 224.84 81.3977 208.897 76.9434 186.647C72.5117 164.407 79.3265 144.279 92.2092 141.719C105.064 139.136 119.104 155.099 123.548 177.344Z" fill="url(#paint14_linear_1304_101)"/>
<path d="M207.043 259.305C146.495 271.404 97.1444 235.391 86.2464 180.969C75.3759 126.534 115.64 72.607 176.197 60.5045C236.736 48.3905 294.635 82.711 305.54 137.129C316.398 191.566 267.595 247.203 207.043 259.305Z" fill="white"/>
<path d="M162.959 53.1132C142.344 58.1186 133.866 65.7596 138.063 75.6439C147.653 92.001 151.966 92.8845 156.404 93.8971C158.012 94.2643 163.619 94.2477 170.844 92.8125C178.07 91.3776 183.257 89.2502 184.603 88.2963C188.317 85.6647 192.086 80.913 194.697 62.1327C194.798 51.3954 179.929 48.9929 162.959 53.1132Z" fill="url(#paint15_linear_1304_101)"/>
<path d="M190.364 54.1674C187.663 72.9468 183.816 77.7802 180.022 80.468C178.627 81.4564 173.253 83.6603 165.766 85.1474C158.279 86.6344 152.47 86.6516 150.803 86.2713C147.995 85.6304 145.232 85.0324 141.245 80.8077C148.67 92.2034 152.49 93.0035 156.404 93.8964C158.012 94.2635 163.619 94.247 170.845 92.8117C178.07 91.3765 183.257 89.2495 184.603 88.2955C188.318 85.6639 192.086 80.9126 194.697 62.1319C194.73 58.5898 193.127 55.9603 190.364 54.1674Z" fill="#616161"/>
<path d="M267.753 122.762C258.579 100.354 239.734 90.5915 218.31 91.2777C204.759 91.7115 191.844 92.8134 173.883 96.3622L173.883 96.3615C173.825 96.3729 173.77 96.3845 173.712 96.3958C173.655 96.4071 173.599 96.4179 173.541 96.4294L173.541 96.4301C155.588 100.015 143.232 103.932 130.544 108.709C110.484 116.262 96.7995 132.486 96.8851 156.698C96.9744 181.955 103.346 204.142 113.07 221.366C132.149 255.159 180.045 252.864 203.691 248.236L203.692 248.238C203.748 248.226 203.806 248.214 203.863 248.203C203.919 248.191 203.978 248.181 204.034 248.169L204.034 248.168C227.654 243.408 272.792 227.226 277.509 188.706C279.913 169.074 277.322 146.136 267.753 122.762Z" fill="url(#paint16_linear_1304_101)"/>
<path d="M261.511 126.68C253.063 106.043 235.707 97.0517 215.976 97.6836C203.496 98.0833 191.602 99.0979 175.061 102.366L175.061 102.365C175.007 102.376 174.956 102.387 174.903 102.397C174.85 102.407 174.798 102.417 174.745 102.428L174.745 102.429C158.211 105.729 146.831 109.337 135.146 113.737C116.671 120.693 104.069 135.634 104.148 157.934C104.23 181.195 110.098 201.628 119.053 217.49C136.625 248.613 180.735 246.499 202.512 242.237L202.513 242.239C202.564 242.228 202.618 242.217 202.67 242.207C202.722 242.196 202.776 242.186 202.828 242.176L202.828 242.175C224.581 237.791 266.152 222.888 270.496 187.412C272.711 169.332 270.325 148.207 261.511 126.68Z" fill="#030014"/>
<path d="M259.988 145.969C258.777 141.838 257.324 137.668 255.61 133.482C247.661 114.066 231.332 105.607 212.768 106.202C209.306 106.313 205.889 106.477 202.395 106.729C226.198 110.324 246.797 122.97 259.988 145.969Z" fill="#8C8C8C"/>
<path d="M196.257 190.004C167.824 206.587 139.199 204.134 124.267 185.117C109.346 166.093 107.321 138.902 135.756 122.314C164.181 105.727 205.783 106.511 220.718 125.525C235.634 144.553 224.691 173.417 196.257 190.004Z" fill="#2A2A2A"/>
<path d="M150.06 153.278C141.862 159.099 131.316 160.504 126.502 156.419C121.692 152.331 124.437 144.299 132.635 138.476C140.831 132.654 151.377 131.25 156.192 135.335C161.002 139.424 158.259 147.456 150.06 153.278Z" fill="url(#paint17_linear_1304_101)"/>
<path d="M175.11 132.366C170.885 134.482 165.887 134.378 163.944 132.135C162.003 129.891 163.854 126.358 168.08 124.242C172.304 122.126 177.303 122.23 179.245 124.473C181.186 126.717 179.336 130.251 175.11 132.366Z" fill="white"/>
<path d="M151.156 233.623C147.955 233.803 144.87 232.393 144.264 230.474C143.66 228.554 145.764 226.852 148.965 226.671C152.165 226.491 155.25 227.901 155.856 229.821C156.46 231.74 154.357 233.443 151.156 233.623Z" fill="url(#paint18_linear_1304_101)"/>
<path d="M256.759 163.547C256.168 161.53 256.611 159.349 257.747 158.677C258.884 158.005 260.284 159.096 260.875 161.114C261.465 163.132 261.023 165.312 259.886 165.985C258.75 166.656 257.349 165.565 256.759 163.547Z" fill="url(#paint19_linear_1304_101)"/>
<path d="M244.44 214.023C239.904 217.366 233.886 217.674 230.996 214.71C228.108 211.746 229.444 206.632 233.98 203.288C238.514 199.944 244.532 199.638 247.423 202.6C250.31 205.566 248.976 210.679 244.44 214.023Z" fill="white"/>
<path d="M281.957 143.22C286.57 166.291 293.792 186.456 307.138 183.781C320.494 181.121 327.574 160.238 322.957 137.153C318.331 114.059 303.767 97.5248 290.422 100.179C277.067 102.837 277.332 120.14 281.957 143.22Z" fill="url(#paint20_linear_1304_101)"/>
<path d="M295.009 140.835C298.989 160.739 307.265 177.73 318.779 175.422C330.301 173.128 348.65 161.08 343.089 133.077C337.296 103.913 315.87 101.005 304.358 103.296C292.836 105.588 291.018 120.922 295.009 140.835Z" fill="white"/>
<path d="M252.919 295.501C253.94 300.374 258.912 303.465 264.042 302.393C269.184 301.329 272.529 296.504 271.511 291.619C270.499 286.734 265.518 283.644 260.385 284.723C255.246 285.789 251.91 290.598 252.919 295.501Z" fill="#E4E5E6"/>
<path d="M194.943 307.55C195.941 312.426 200.722 315.568 205.584 314.551C210.431 313.546 213.536 308.764 212.539 303.875C211.513 299.001 206.764 295.861 201.9 296.861C197.032 297.888 193.929 302.664 194.943 307.55Z" fill="#E4E5E6"/>
<path d="M234.249 289.593C235.151 294.014 239.479 296.864 243.877 295.943C248.275 295.026 251.089 290.707 250.164 286.295C249.249 281.856 244.941 279.014 240.547 279.939C236.155 280.845 233.319 285.168 234.249 289.593Z" fill="#E4E5E6"/>
<path d="M212.709 294.081C213.636 298.482 217.948 301.329 222.345 300.415C226.746 299.511 229.566 295.179 228.646 290.761C227.729 286.333 223.407 283.503 219.02 284.417C214.603 285.324 211.779 289.65 212.709 294.081Z" fill="#E4E5E6"/>
<path d="M219.077 310.533C219.543 312.796 221.753 314.24 224.024 313.785L247.858 308.827C250.117 308.361 251.552 306.141 251.094 303.892L250.816 302.703C250.34 300.466 248.134 299 245.884 299.457L222.034 304.414C219.783 304.883 218.319 307.092 218.79 309.348L219.077 310.533Z" fill="#E4E5E6"/>
<path d="M222.28 326.043C222.746 328.306 224.956 329.75 227.228 329.295L251.061 324.337C253.321 323.871 254.756 321.651 254.298 319.402L254.019 318.213C253.544 315.976 251.338 314.51 249.087 314.967L225.237 319.924C222.986 320.393 221.522 322.602 221.993 324.857L222.28 326.043Z" fill="#E4E5E6"/>
<defs>
<linearGradient id="paint0_linear_1304_101" x1="327.088" y1="512.958" x2="277.66" y2="539.814" gradientUnits="userSpaceOnUse">
<stop stop-color="#3A3EF5"/>
<stop offset="1" stop-color="#32C8F1"/>
</linearGradient>
<linearGradient id="paint1_linear_1304_101" x1="293.425" y1="492.484" x2="262.2" y2="509.45" gradientUnits="userSpaceOnUse">
<stop stop-color="#3A3EF5"/>
<stop offset="1" stop-color="#32C8F1"/>
</linearGradient>
<linearGradient id="paint2_linear_1304_101" x1="470.555" y1="455.618" x2="429.762" y2="494.351" gradientUnits="userSpaceOnUse">
<stop stop-color="#3A3EF5"/>
<stop offset="1" stop-color="#32C8F1"/>
</linearGradient>
<linearGradient id="paint3_linear_1304_101" x1="432.74" y1="444.554" x2="406.97" y2="469.023" gradientUnits="userSpaceOnUse">
<stop stop-color="#3A3EF5"/>
<stop offset="1" stop-color="#32C8F1"/>
</linearGradient>
<linearGradient id="paint4_linear_1304_101" x1="126.615" y1="280.137" x2="107.207" y2="294.726" gradientUnits="userSpaceOnUse">
<stop stop-color="#3A3EF5"/>
<stop offset="1" stop-color="#32C8F1"/>
</linearGradient>
<linearGradient id="paint5_linear_1304_101" x1="382.2" y1="278.884" x2="362.711" y2="294.434" gradientUnits="userSpaceOnUse">
<stop stop-color="#3A3EF5"/>
<stop offset="1" stop-color="#32C8F1"/>
</linearGradient>
<linearGradient id="paint6_linear_1304_101" x1="253.75" y1="358.18" x2="221.713" y2="381.745" gradientUnits="userSpaceOnUse">
<stop stop-color="#3A3EF5"/>
<stop offset="1" stop-color="#32C8F1"/>
</linearGradient>
<linearGradient id="paint7_linear_1304_101" x1="259.927" y1="472.442" x2="214.97" y2="507.436" gradientUnits="userSpaceOnUse">
<stop stop-color="#3A3EF5"/>
<stop offset="1" stop-color="#32C8F1"/>
</linearGradient>
<linearGradient id="paint8_linear_1304_101" x1="235.567" y1="432.612" x2="209.114" y2="460.76" gradientUnits="userSpaceOnUse">
<stop stop-color="#3A3EF5"/>
<stop offset="1" stop-color="#32C8F1"/>
</linearGradient>
<linearGradient id="paint9_linear_1304_101" x1="263.695" y1="361.585" x2="243.718" y2="377.632" gradientUnits="userSpaceOnUse">
<stop stop-color="#3A3EF5"/>
<stop offset="1" stop-color="#32C8F1"/>
</linearGradient>
<linearGradient id="paint10_linear_1304_101" x1="399.675" y1="457.514" x2="368.195" y2="496.473" gradientUnits="userSpaceOnUse">
<stop stop-color="#3A3EF5"/>
<stop offset="1" stop-color="#32C8F1"/>
</linearGradient>
<linearGradient id="paint11_linear_1304_101" x1="392.299" y1="455.222" x2="357.197" y2="491.583" gradientUnits="userSpaceOnUse">
<stop stop-color="#3A3EF5"/>
<stop offset="1" stop-color="#32C8F1"/>
</linearGradient>
<linearGradient id="paint12_linear_1304_101" x1="346.818" y1="430.35" x2="323.549" y2="457.678" gradientUnits="userSpaceOnUse">
<stop stop-color="#3A3EF5"/>
<stop offset="1" stop-color="#32C8F1"/>
</linearGradient>
<linearGradient id="paint13_linear_1304_101" x1="329.495" y1="322.457" x2="286.065" y2="367.725" gradientUnits="userSpaceOnUse">
<stop stop-color="#3A3EF5"/>
<stop offset="1" stop-color="#32C8F1"/>
</linearGradient>
<linearGradient id="paint14_linear_1304_101" x1="141.479" y1="214.939" x2="108.532" y2="234.409" gradientUnits="userSpaceOnUse">
<stop stop-color="#3A3EF5"/>
<stop offset="1" stop-color="#32C8F1"/>
</linearGradient>
<linearGradient id="paint15_linear_1304_101" x1="205.473" y1="83.0683" x2="172.525" y2="111.43" gradientUnits="userSpaceOnUse">
<stop stop-color="#3A3EF5"/>
<stop offset="1" stop-color="#32C8F1"/>
</linearGradient>
<linearGradient id="paint16_linear_1304_101" x1="311.255" y1="218.719" x2="202.287" y2="302.577" gradientUnits="userSpaceOnUse">
<stop stop-color="#3A3EF5"/>
<stop offset="1" stop-color="#32C8F1"/>
</linearGradient>
<linearGradient id="paint17_linear_1304_101" x1="163.917" y1="150.087" x2="144.659" y2="168.927" gradientUnits="userSpaceOnUse">
<stop stop-color="#3A3EF5"/>
<stop offset="1" stop-color="#32C8F1"/>
</linearGradient>
<linearGradient id="paint18_linear_1304_101" x1="157.127" y1="232.283" x2="150.845" y2="237.584" gradientUnits="userSpaceOnUse">
<stop stop-color="#3A3EF5"/>
<stop offset="1" stop-color="#32C8F1"/>
</linearGradient>
<linearGradient id="paint19_linear_1304_101" x1="262.77" y1="165.381" x2="259.572" y2="167.295" gradientUnits="userSpaceOnUse">
<stop stop-color="#3A3EF5"/>
<stop offset="1" stop-color="#32C8F1"/>
</linearGradient>
<linearGradient id="paint20_linear_1304_101" x1="341.432" y1="176.222" x2="311.207" y2="193.347" gradientUnits="userSpaceOnUse">
<stop stop-color="#3A3EF5"/>
<stop offset="1" stop-color="#32C8F1"/>
</linearGradient>
</defs>
</svg>
